HIERARCHY
ROOT ui
{
	 OFFSET 0 0 0
	 CHANNELS 3 XPosition YPosition Z Position
	 EndSite
	 {
	 OFFSET 0 -1 0
	 }
}
ROOT li
{
	 OFFSET 0 0 0
	 CHANNELS 3 XPosition YPosition Z Position
	 EndSite
	 {
	 OFFSET 0 -1 0
	 }
}
ROOT ul
{
	 OFFSET 0 0 0
	 CHANNELS 3 XPosition YPosition Z Position
	 EndSite
	 {
	 OFFSET 0 -1 0
	 }
}
ROOT ll
{
	 OFFSET 0 0 0
	 CHANNELS 3 XPosition YPosition Z Position
	 EndSite
	 {
	 OFFSET 0 -1 0
	 }
}
ROOT tt
{
	 OFFSET 0 0 0
	 CHANNELS 3 XPosition YPosition Z Position
	 EndSite
	 {
	 OFFSET 0 -1 0
	 }
}
ROOT tb
{
	 OFFSET 0 0 0
	 CHANNELS 3 XPosition YPosition Z Position
	 EndSite
	 {
	 OFFSET 0 -1 0
	 }
}
ROOT td
{
	 OFFSET 0 0 0
	 CHANNELS 3 XPosition YPosition Z Position
	 EndSite
	 {
	 OFFSET 0 -1 0
	 }
}
ROOT v
{
	 OFFSET 0 0 0
	 CHANNELS 3 XPosition YPosition Z Position
	 EndSite
	 {
	 OFFSET 0 -1 0
	 }
}
ROOT bn
{
	 OFFSET 0 0 0
	 CHANNELS 3 XPosition YPosition Z Position
	 EndSite
	 {
	 OFFSET 0 -1 0
	 }
}
MOTION
Frames: 24
Frame Time: 0.002
-4.896030128002166E-4	-0.003720402956008911	0		0.6842896728515625	-2.76075634765625	0		-0.9990194702148437	0.029971738815307618	0		-0.34770687866210936	-2.750408935546875	0		2.2502080078125	-1.6644146728515625	0		3.108962158203125	-0.2650727233886719	0		4.50431640625	0.753616455078125	0		6.02661474609375	0.9191436157226562	0		-0.30916986083984377	5.89951220703125	0		
-7.818549871444702E-4	-0.0036814649105072024	0		0.6641622314453125	-2.750333740234375	0		-1.0715142822265624	0.020446395874023436	0		-0.3146275329589844	-2.7300205078125	0		2.258773681640625	-1.6705819091796874	0		3.119565673828125	-0.27029086303710936	0		4.4940361328125	0.753793212890625	0		6.03421142578125	0.91350732421875	0		-0.30646368408203123	5.8954970703125	0		
0.009163947105407714	0.006158203125	0		0.668998779296875	-2.74440234375	0		-0.9949168090820313	0.011979047775268554	0		-0.3742451477050781	-2.695800048828125	0		2.257860595703125	-1.6525523681640626	0		3.14356494140625	-0.257763671875	0		4.5069111328125	0.7595232543945313	0		6.037029296875	0.930614501953125	0		-0.2934512939453125	5.90528076171875	0		
0.004899083137512207	0.0032775468826293946	0		0.666727294921875	-2.746328857421875	0		-1.0162770385742188	0.00444455623626709	0		-0.31733013916015623	-2.688884033203125	0		2.27047802734375	-1.6607889404296876	0		3.128240478515625	-0.2634560546875	0		4.50359375	0.7535810546875	0		6.03046484375	0.9308912963867187	0		-0.307777099609375	5.8966015625	0		
0.0016567560434341431	-6.214349865913391E-4	0		0.6796394653320312	-2.741550537109375	0		-1.00771923828125	-0.009682042121887207	0		-0.3829872741699219	-2.661541748046875	0		2.2533447265625	-1.65842919921875	0		3.119115966796875	-0.2612606201171875	0		4.503435546875	0.7535889282226562	0		6.0250625	0.894801025390625	0		-0.3069176330566406	5.89562548828125	0		
-0.0015250149965286256	-0.00351965594291687	0		0.6545663452148438	-2.738018798828125	0		-1.0190575561523438	-0.020415372848510742	0		-0.31311807250976564	-2.66188134765625	0		2.268111328125	-1.6636943359375	0		3.120754150390625	-0.27327206420898437	0		4.50817724609375	0.7465100708007812	0		6.0263740234375	0.8912910766601563	0		-0.3070101013183594	5.8956689453125	0		
-0.001609439969062805	-0.003477030038833618	0		0.6683524780273438	-2.744253662109375	0		-1.1270814208984374	-0.016235595703125	0		-0.36584426879882814	-2.642793701171875	0		2.2551826171875	-1.655403076171875	0		3.13584375	-0.26453692626953124	0		4.51193603515625	0.7384617919921875	0		6.02812939453125	0.8514486694335938	0		-0.29388189697265626	5.90545361328125	0		
0.004479785919189453	0.003446613073348999	0		0.6615806274414062	-2.730074951171875	0		-1.0033314819335937	-0.027640260696411133	0		-0.36851800537109375	-2.6236943359375	0		2.2571923828125	-1.6524012451171874	0		3.13251953125	-0.27843356323242185	0		4.5140068359375	0.74446142578125	0		6.01552734375	0.88499560546875	0		-0.29392559814453123	5.90549755859375	0		
-0.0016711089611053467	-0.0033881900310516358	0		0.6615708618164062	-2.730028564453125	0		-1.0783701171875	-0.02811383819580078	0		-0.36444964599609375	-2.6197294921875	0		2.2551220703125	-1.6553126220703125	0		3.151522216796875	-0.27775946044921873	0		4.515734375	0.7314762573242187	0		6.0180458984375	0.845170166015625	0		-0.29296786499023436	5.90452294921875	0		
0.004484076976776123	0.003539539098739624	0		0.6757339477539063	-2.723256591796875	0		-1.082410400390625	-0.030990280151367188	0		-0.37216412353515627	-2.606527587890625	0		2.255145751953125	-1.6552572021484375	0		3.143404541015625	-0.28454144287109373	0		4.505751953125	0.7317371215820313	0		6.0164345703125	0.82114208984375	0		-0.30618508911132813	5.89382861328125	0		
-0.001606124997138977	-0.0032897040843963624	0		0.6508590698242187	-2.719708984375	0		-1.0854417724609375	-0.03488499450683594	0		-0.3690252685546875	-2.60253857421875	0		2.26302197265625	-1.6643509521484374	0		3.13647412109375	-0.28333627319335936	0		4.52065380859375	0.7245162963867188	0		6.0125771484375	0.7816731567382813	0		-0.30712893676757813	5.89589697265625	0		
0.001525233030319214	-2.9472801089286806E-4	0		0.664828369140625	-2.72592529296875	0		-1.08229052734375	-0.030897327423095703	0		-0.35095877075195314	-2.603841552734375	0		2.267223388671875	-1.6583614501953126	0		3.130174560546875	-0.302138671875	0		4.5045869140625	0.7179181518554687	0		6.0117177734375	0.7576558227539063	0		-0.30615438842773435	5.8929306640625	0		
0.008756988525390625	0.0066253809928894045	0		0.6700812377929688	-2.718960693359375	0		-1.101329833984375	-0.03746945571899414	0		-0.3436875305175781	-2.59592431640625	0		2.281347900390625	-1.6575611572265625	0		3.161324951171875	-0.29966781616210936	0		4.51237841796875	0.70285693359375	0		6.01385302734375	0.7490880126953126	0		-0.2899493713378906	5.90067041015625	0		
0.0048114809989929196	0.0037699968814849855	0		0.6724923095703125	-2.704932373046875	0		-1.085160400390625	-0.034729747772216796	0		-0.3543735656738281	-2.586646728515625	0		2.2454814453125	-1.65676708984375	0		3.1272890625	-0.30690444946289064	0		4.50862451171875	0.7100364990234375	0		6.002912109375	0.7100164184570312	0		-0.3060394592285156	5.89305029296875	0		
-0.051169628143310546	-0.0010540469884872436	0		0.6477051391601563	-2.701364013671875	0		-1.0890921630859376	-0.03758906555175781	0		-0.3434053955078125	-2.595794677734375	0		2.278555908203125	-1.66032861328125	0		3.12298486328125	-0.32872512817382815	0		4.50846923828125	0.6961467895507812	0		5.999365234375	0.7017471923828125	0		-0.3191566467285156	5.88337646484375	0		
-0.0010616940259933472	-0.002965567111968994	0		0.6727997436523437	-2.70477685546875	0		-1.116225341796875	-0.05098807525634766	0		-0.3412085876464844	-2.5937626953125	0		2.230873291015625	-1.6512913818359376	0		3.128985595703125	-0.3357430114746094	0		4.49832666015625	0.6824566650390625	0		5.994845703125	0.6606512451171875	0		-0.3190655822753906	5.88344873046875	0		
-9.11296010017395E-4	-0.002887653112411499	0		0.6619317016601562	-2.70647705078125	0		-1.10485986328125	-0.0401368637084961	0		-0.33796188354492185	-2.5897470703125	0		2.2229580078125	-1.6550394287109376	0		3.117101318359375	-0.3374064025878906	0		4.50719482421875	0.6683912353515625	0		5.99542578125	0.6314205932617187	0		-0.30478152465820313	5.89224658203125	0		
0.005394107818603515	0.004073627948760986	0		0.6553729858398437	-2.693257080078125	0		-1.1046910400390626	-0.040062202453613284	0		-0.42846548461914064	-2.5728779296875	0		2.187576416015625	-1.632240966796875	0		3.108135498046875	-0.34412933349609376	0		4.501203125	0.6606171875	0		5.9863740234375	0.6441700439453125	0		-0.30464596557617185	5.89232568359375	0		
0.005586732864379882	0.004157138824462891	0		0.6555759887695313	-2.6931708984375	0		-1.104498291015625	-0.03998294448852539	0		-0.33349813842773435	-2.58566552734375	0		2.222689697265625	-1.636837890625	0		3.116131103515625	-0.3541895751953125	0		4.49727587890625	0.6547979125976563	0		5.99039599609375	0.595719482421875	0		-0.30447592163085935	5.892408203125	0		
-3.28359991312027E-4	-0.0026378889083862305	0		0.660135986328125	-2.67616650390625	0		-1.1042764892578125	-0.03989927673339844	0		-0.4758703918457031	-2.563767578125	0		2.195820556640625	-1.641216064453125	0		3.124977294921875	-0.37327285766601564	0		4.49408349609375	0.63395361328125	0		5.9859384765625	0.5545762939453125	0		-0.3164976501464844	5.8807314453125	0		
-7.357200235128402E-5	-0.0025516409873962403	0		0.6540145263671875	-2.694959228515625	0		-1.1040218505859376	-0.03981174850463867	0		-0.3370986328125	-2.58941455078125	0		2.17309765625	-1.6396795654296874	0		3.0811416015625	-0.37732247924804685	0		4.4792236328125	0.628331298828125	0		5.97898876953125	0.5550541381835937	0		-0.304001953125	5.89257958984375	0		
2.1811600029468536E-4	-0.0024655330181121825	0		0.657392578125	-2.68993603515625	0		-1.1157279052734375	-0.03948444747924805	0		-0.4825335693359375	-2.57345263671875	0		2.11384716796875	-1.615425048828125	0		3.075058349609375	-0.39612771606445313	0		4.469244140625	0.614597900390625	0		5.9920615234375	0.5580040283203125	0		-0.4341128845214844	5.87223291015625	0		
0.010745386123657226	0.007420785903930664	0		0.66282177734375	-2.683955322265625	0		-1.101379150390625	-0.03866683959960938	0		-0.3144505310058594	-2.586673095703125	0		2.136005126953125	-1.62378759765625	0		3.1074404296875	-0.39369677734375	0		4.47442236328125	0.6065526733398438	0		5.99210546875	0.6221047973632813	0		-0.2861935729980469	5.89841845703125	0		
0.00398407793045044	6.440939903259277E-4	0		0.6415088500976562	-2.666447509765625	0		-1.107884521484375	-0.0324345588684082	0		-0.4469183349609375	-2.575964599609375	0		2.0719482421875	-1.593449462890625	0		3.0637216796875	-0.39777618408203125	0		4.47856640625	0.5945138549804687	0		5.982982421875	0.6952654418945312	0		-0.3018922119140625	5.891822265625	0		
